<svg width="20" height="20" viewBox="0 0 20 20" fill="none" xmlns="http://www.w3.org/2000/svg">
<path fill-rule="evenodd" clip-rule="evenodd" d="M10 0.25C4.61522 0.25 0.25 4.61522 0.25 10C0.25 15.3848 4.61522 19.75 10 19.75C15.3848 19.75 19.75 15.3848 19.75 10C19.75 4.61522 15.3848 0.25 10 0.25ZM14.2803 10.5303C14.421 10.3897 14.5 10.1989 14.5 10C14.5 9.80109 14.421 9.61032 14.2803 9.46967L11.2803 6.46967C10.9874 6.17678 10.5126 6.17678 10.2197 6.46967C9.92678 6.76256 9.92678 7.23744 10.2197 7.53033L11.9393 9.25L6.25 9.25C5.83579 9.25 5.5 9.58578 5.5 10C5.5 10.4142 5.83579 10.75 6.25 10.75L11.9393 10.75L10.2197 12.4697C9.92678 12.7626 9.92678 13.2374 10.2197 13.5303C10.5126 13.8232 10.9874 13.8232 11.2803 13.5303L14.2803 10.5303Z" fill="#0F172A"/>
</svg>
