<svg width="22" height="16" viewBox="0 0 22 16" fill="none" xmlns="http://www.w3.org/2000/svg">
<path d="M17.8944 1.34399C16.5184 0.714666 15.057 0.255998 13.5317 0C13.3397 0.330669 13.1263 0.778662 12.977 1.13067C11.3546 0.895994 9.74395 0.895994 8.14394 1.13067C7.9946 0.778662 7.77059 0.330669 7.58925 0C6.05328 0.255998 4.59194 0.714666 3.22555 1.34399C0.462887 5.41865 -0.283781 9.3973 0.0895519 13.3226C1.92421 14.6559 3.6949 15.4666 5.43463 16C5.86129 15.424 6.2453 14.8053 6.57597 14.1546C5.94663 13.92 5.3493 13.632 4.7733 13.2906C4.92263 13.184 5.07197 13.0667 5.21064 12.9493C8.68796 14.5387 12.4544 14.5387 15.889 12.9493C16.0383 13.0667 16.177 13.184 16.3263 13.2906C15.7503 13.632 15.153 13.92 14.5237 14.1546C14.8543 14.8053 15.2384 15.424 15.665 16C17.4037 15.4666 19.185 14.6559 21.0101 13.3226C21.4687 8.77867 20.2837 4.83202 17.8944 1.34399ZM7.05596 10.9013C6.01061 10.9013 5.15728 9.95199 5.15728 8.78934C5.15728 7.62668 5.98928 6.67731 7.05596 6.67731C8.11194 6.67731 8.97591 7.62668 8.95457 8.78934C8.95457 9.95199 8.11194 10.9013 7.05596 10.9013ZM14.065 10.9013C13.0197 10.9013 12.1653 9.95199 12.1653 8.78934C12.1653 7.62668 12.9983 6.67731 14.065 6.67731C15.121 6.67731 15.985 7.62668 15.9637 8.78934C15.9637 9.95199 15.1317 10.9013 14.065 10.9013Z" fill="black"/>
</svg>
